<?xml version="1.0" standalone="no"?>
<!DOCTYPE svg PUBLIC "-//W3C//DTD SVG 20010904//EN"
 "http://www.w3.org/TR/2001/REC-SVG-20010904/DTD/svg10.dtd">
<svg version="1.0" xmlns="http://www.w3.org/2000/svg"
 width="501.000000pt" height="501.000000pt" viewBox="0 0 501.000000 501.000000"
 preserveAspectRatio="xMidYMid meet">
<metadata>
Created by potrace 1.14, written by Peter Selinger 2001-2017
</metadata>
<g transform="translate(0.000000,501.000000) scale(0.100000,-0.100000)"
fill="#000000" stroke="none">
<path d="M0 2500 l0 -2500 2500 0 2500 0 0 2500 0 2500 -2500 0 -2500 0 0
-2500z m1432 137 l-5 -2004 249 -6 c137 -4 515 -8 839 -8 325 -1 756 -5 958
-8 l369 -6 -141 -122 -141 -123 -1200 0 -1200 0 0 1983 1 1982 135 158 c75 86
137 157 138 157 1 0 0 -902 -2 -2003z m1592 1205 c445 -438 808 -801 806 -807
-1 -5 -40 -20 -85 -32 -395 -105 -751 -341 -987 -655 -191 -254 -338 -600
-413 -973 -29 -142 -55 -336 -55 -406 l0 -49 -245 0 -245 0 0 1860 0 1860 208
0 207 0 809 -798z"/>
</g>
</svg>
