<svg width="723" height="201" viewBox="0 0 723 201" fill="none" xmlns="http://www.w3.org/2000/svg">
<g id="LePrestigeLogo">
<path id="SeparadorLogo" d="M160.624 191.114H155.475V10.2065H160.624V191.114Z" fill="#010101"/>
<path id="VelaLogo" d="M30.3806 0.659668V174.446H53.1887C53.5725 166.904 56.3136 121.905 86.2684 95.7353C101.202 82.6918 116.908 77.9298 126.073 76.0056C113.029 63.1507 99.9913 50.2957 86.9476 37.4407C74.5425 25.2094 62.131 12.9828 49.7259 0.751519" fill="#010101"/>
<path id="LLogo" d="M126.074 188.879C79.5272 188.633 59.696 188.386 13.1439 188.139C13.281 115.694 13.4315 73.1069 13.5822 0.661621L0.533691 15.7889V200.661H112.53" fill="#010101"/>
<path id="L" d="M188.076 141.022V140.757C188.076 138.209 192.894 137.943 192.894 133.258V56.9503C192.894 51.9997 188.076 52.1303 188.076 49.4519V49.1861C188.076 48.1177 189.144 47.5811 190.753 47.5811H207.622C209.227 47.5811 210.299 48.1177 210.299 49.1861V49.4519C210.299 52.1303 205.079 51.9997 205.079 56.9503V131.919C205.079 134.999 206.548 137.14 209.362 137.14H239.079C246.844 137.14 248.453 122.414 253.138 122.414H254.209C255.415 122.414 256.082 123.217 255.681 124.822L252.338 139.548C251.941 141.559 250.994 142.628 248.986 142.628H190.753C189.148 142.628 188.076 141.96 188.076 141.022Z" fill="#010101"/>
<path id="P" d="M349.269 104.876C365.601 104.876 375.908 96.1743 375.908 81.4483C375.908 61.9024 361.589 53.0697 346.191 53.0697H338.964C336.551 53.0697 335.481 54.5394 335.481 57.3531V100.056C335.481 103.136 337.088 104.876 340.303 104.876H349.269ZM318.481 140.889V140.618C318.481 138.346 323.437 138.075 323.437 133.255V56.9518C323.437 52.533 318.481 51.9964 318.481 49.5888V49.1876C318.481 48.1143 319.547 47.5776 321.292 47.5776H346.191C368.546 47.5776 388.365 56.2798 388.365 78.5041C388.365 98.9879 373.766 110.364 349.269 110.364H335.481V133.255C335.481 138.075 340.704 138.346 340.704 140.618V140.889C340.704 141.957 339.634 142.629 338.024 142.629H321.292C319.551 142.629 318.481 141.957 318.481 140.889Z" fill="#010101"/>
<path id="E1" d="M260.687 141.635V141.47C260.687 139.894 263.752 139.894 263.752 136.752V89.7362C263.752 86.5937 260.687 86.5115 260.687 85.0225V84.7711C260.687 84.191 261.262 83.8623 262.176 83.8623H297.27C298.599 83.8623 299.091 84.5246 299.337 85.6801L301.325 93.8746C301.571 95.0349 301.16 95.5328 300.338 95.5328H299.926C297.359 95.5328 295.377 87.2561 291.07 87.2561H273.525C272.035 87.2561 271.203 88.0828 271.203 90.0698V110.844H286.269C289.417 110.844 289.335 105.961 291.07 105.961H291.398C292.056 105.961 292.469 106.459 292.469 107.368V117.549C292.469 118.376 292.056 118.956 291.398 118.956H291.07C289.335 118.956 289.417 114.238 286.269 114.238H271.203L271.066 135.674C271.066 137.579 272.068 139.232 274.134 139.232H293.583C297.968 139.232 299.375 130.709 302.275 130.709H302.767C303.507 130.709 303.932 131.453 303.767 132.362L301.78 140.726C301.533 141.964 300.958 142.626 299.628 142.626H262.383C261.383 142.626 260.644 142.297 260.644 141.635" fill="#010101"/>
<path id="R" d="M429.254 103.147C429.254 92.2212 420.812 87.2561 411.538 87.2561H405.994C404.505 87.2561 403.843 88.3294 403.843 90.0698V112.584C403.843 115.316 405.088 116.471 407.316 116.471H413.027C422.628 116.471 429.254 111.506 429.254 103.147ZM441.419 141.47V141.635C441.419 142.297 440.764 142.631 439.763 142.631H428.257C427.27 142.631 426.604 142.297 426.604 141.635V141.47C426.604 139.899 430.162 139.899 428.257 136.834L415.841 119.701C415.183 119.783 414.527 119.783 413.773 119.783L403.843 119.952V136.834C403.843 139.812 407.072 139.899 407.072 141.47V141.635C407.072 142.297 406.416 142.631 405.416 142.631H394.987C394 142.631 393.334 142.297 393.334 141.635V141.47C393.334 139.899 396.312 139.812 396.312 136.834V89.6541C396.312 86.6761 393.334 86.5939 393.334 85.0226V84.8534C393.334 84.1911 393.992 83.8623 394.987 83.8623H411.957C426.106 83.8623 436.867 89.5719 436.949 102.069C436.949 109.601 432.065 115.978 422.961 118.54L436.203 136.834C438.437 139.981 441.419 139.899 441.419 141.47Z" fill="#010101"/>
<path id="E2" d="M446.884 141.635V141.47C446.884 139.894 449.945 139.894 449.945 136.752V89.7362C449.945 86.5937 446.884 86.5115 446.884 85.0225V84.7711C446.884 84.191 447.459 83.8623 448.373 83.8623H483.467C484.796 83.8623 485.291 84.5246 485.538 85.6801L487.522 93.8746C487.769 95.0349 487.357 95.5328 486.535 95.5328H486.127C483.56 95.5328 481.574 87.2561 477.267 87.2561H459.725C458.235 87.2561 457.403 88.0828 457.403 90.0698V110.844H472.466C475.614 110.844 475.532 105.961 477.267 105.961H477.598C478.256 105.961 478.666 106.459 478.666 107.368V117.549C478.666 118.376 478.256 118.956 477.598 118.956H477.267C475.532 118.956 475.614 114.238 472.466 114.238H457.403L457.266 135.674C457.266 137.579 458.265 139.232 460.331 139.232H479.78C484.165 139.232 485.572 130.709 488.472 130.709H488.967C489.707 130.709 490.132 131.453 489.968 132.362L487.98 140.726C487.734 141.964 487.158 142.626 485.829 142.626H448.584C447.583 142.626 446.841 142.297 446.841 141.635" fill="#010101"/>
<path id="S" d="M494.392 128.89C494.392 126.986 495.475 125.579 497.54 125.579C503.496 125.83 501.429 140.227 518.07 140.227C525.931 140.227 531.309 135.678 531.309 129.137C531.309 108.527 495.965 124.09 495.965 99.2596C495.965 90.0692 503.416 83.1172 516.575 83.1172C530.649 83.1172 538.014 90.9008 538.014 96.6103C538.014 98.5973 536.85 99.922 534.622 99.922C528.414 99.922 531.559 86.3467 516.33 86.3467C507.971 86.3467 503.496 91.2295 503.496 97.5192C503.496 116.804 538.924 102.402 538.924 127.401C538.924 137.331 529.324 143.457 517.736 143.457C501.511 143.457 494.392 133.938 494.392 128.89Z" fill="#010101"/>
<path id="T" d="M558.953 141.635V141.47C558.953 139.894 562.015 139.812 562.015 136.834V87.4205H550.759C546.54 87.4205 546.04 96.3595 543.643 96.3595H542.904C542.068 96.3595 541.655 95.8616 541.82 94.7062L543.151 85.6801C543.316 84.5247 543.89 83.8623 545.219 83.8623H586.358C587.688 83.8623 588.263 84.5246 588.51 85.6801L590.33 94.7883C590.577 95.8616 590.083 96.3595 589.33 96.3595H588.51C586.112 96.3595 585.032 87.4205 580.895 87.4205H569.469V136.834C569.469 139.812 572.698 139.894 572.698 141.47V141.635C572.698 142.297 572.041 142.626 570.958 142.626H560.613C559.626 142.626 558.953 142.297 558.953 141.635Z" fill="#010101"/>
<path id="I" d="M596.205 141.47C596.205 139.981 599.183 139.899 599.183 136.916V89.6588C599.183 86.6759 596.205 86.5937 596.205 85.0225V84.8582C596.205 84.1959 596.863 83.8623 597.858 83.8623H608.203C609.204 83.8623 609.863 84.1959 609.863 84.8582V85.0225C609.863 86.5937 606.714 86.6759 606.714 89.6588V136.916C606.714 139.899 609.863 139.981 609.863 141.47V141.635C609.863 142.297 609.204 142.631 608.203 142.631H597.858C596.871 142.631 596.205 142.297 596.205 141.635V141.47Z" fill="#C48E46"/>
<path id="G" d="M617.561 113.494C617.561 95.2001 629.811 83.1187 645.287 83.1187C659.278 83.1187 668.135 92.3042 668.135 98.3474C668.135 100.499 666.726 101.906 664.575 101.906C658.362 101.906 658.199 86.5125 643.136 86.5125C633.123 86.5125 624.928 96.196 624.928 109.027C624.928 125.827 636.102 138.406 648.188 138.406C653.482 138.406 658.199 136.917 661.096 134.848V120.528C661.096 117.216 655.468 117.386 655.468 115.979V115.645C655.468 114.901 656.208 114.485 657.208 114.485L671.361 114.571C672.361 114.571 673.017 114.982 673.017 115.645V115.978C673.017 117.385 668.135 117.216 668.135 120.527V133.358C668.135 135.094 667.642 136.008 665.984 137.332C661.677 140.89 654.805 143.458 646.2 143.458C630.971 143.458 617.561 129.719 617.561 113.494Z" fill="#010101"/>
<path id="E3" d="M679.309 141.635V141.47C679.309 139.894 682.37 139.894 682.37 136.752V89.7362C682.37 86.5937 679.309 86.5115 679.309 85.0225V84.7711C679.309 84.191 679.884 83.8623 680.798 83.8623H715.892C717.221 83.8623 717.716 84.5246 717.963 85.6801L719.947 93.8746C720.193 95.0349 719.785 95.5328 718.963 95.5328H718.552C715.985 95.5328 713.999 87.2561 709.692 87.2561H692.15C690.66 87.2561 689.828 88.0828 689.828 90.0698V110.844H704.894C708.042 110.844 707.957 105.961 709.692 105.961H710.023C710.681 105.961 711.09 106.459 711.09 107.368V117.549C711.09 118.376 710.681 118.956 710.023 118.956H709.692C707.957 118.956 708.042 114.238 704.894 114.238H689.828L689.691 135.674C689.691 137.579 690.69 139.232 692.756 139.232H712.205C716.59 139.232 717.997 130.709 720.897 130.709H721.392C722.132 130.709 722.557 131.453 722.392 132.362L720.405 140.726C720.158 141.964 719.583 142.626 718.254 142.626H681.009C680.008 142.626 679.269 142.297 679.269 141.635" fill="#010101"/>
<path id="Ipunto" d="M609.394 67.5274C609.394 71.1678 606.441 74.1217 602.8 74.1217C599.155 74.1217 596.205 71.1678 596.205 67.5274C596.205 63.887 599.155 60.9331 602.8 60.9331C606.441 60.9331 609.394 63.887 609.394 67.5274Z" fill="#C48E46"/>
</g>
</svg>
